<svg t="1562988001216" class="icon" viewBox="0 0 1024 1024" version="1.1" xmlns="http://www.w3.org/2000/svg" p-id="2296" width="200" height="200"><path d="M836.077 114.536a513.327 513.327 0 0 0-94.815-61.345 512 512 0 0 1-632.415 773.405 512 512 0 1 0 727.23-712.06z" fill="#BDDDFA" p-id="2297"></path><path d="M512 75.852A436.148 436.148 0 1 1 75.852 512 436.622 436.622 0 0 1 512 75.852M512 0a512 512 0 1 0 512 512A512 512 0 0 0 512 0z" fill="#0788FF" p-id="2298"></path><path d="M644.74 704.569H379.26l-82.016-252.587L512 295.917l214.756 156.065z m-244.906-28.445h224.237l69.31-213.238L512 331.093 330.62 462.886zM512 228.314L331.852 97.47l16.782-23.04L512 193.138 675.366 74.43l16.782 23.04L512 228.314zM343.704 980.385L296.77 783.93 95.384 767.81l2.275-28.35 221.962 17.731 51.674 216.557-27.591 6.637zM44.184 582.163l-17.351-22.566 160.616-122.5-66.845-190.578 26.833-9.482 73.671 210.11L44.184 582.163z m589.843 412.729l-26.738-9.671 75.757-209.351 222.53 7.3-0.948 28.35-201.86-6.542-68.741 189.914z m351.857-426.477L807.16 435.769l70.826-211.058 26.928 9.102-64.285 191.431 162.228 120.32-16.972 22.85z" fill="#0788FF" p-id="2299"></path><path d="M496.356 222.72H524.8v123.26h-28.444z m183.893 229.395l140.184-35.499 6.978 27.582-140.165 35.49z m-74.26 223.128l24.274-14.82 74.742 122.444-24.273 14.82z m-308.176 85.56l97.66-102.618 20.593 19.608-97.65 102.628z m-95.952-304.668l4.93-28.008 135.965 23.893-4.93 28.018z" fill="#0788FF" p-id="2300"></path></svg>